<?xml version="1.0" encoding="UTF-8"?><svg id="Layer_1" xmlns="http://www.w3.org/2000/svg" viewBox="0 0 640 640"><defs><style>.cls-1{fill:#009aa9;}</style></defs><rect class="cls-1" width="640" height="640"/><path d="M476,541h-152c-19.88,0-36-16.12-36-36V157h-96v156c0,19.88-16.12,36-36,36H31.1c-16.77,0-31.1-14.3-31.1-32s14.33-31.1,31.1-31.1h96.9V129.9c0-19.88,16.12-36,36-36h152c19.88,0,36,16.12,36,36V477.9h96v-156c0-19.88,16.12-36,36-36h124c17.7-.9,32,13.4,32,31.1s-14.33,32-31.1,32h-96.9v156c0,19.9-16.1,36-36,36Z"/></svg>